<?xml version="1.0" encoding="iso-8859-1"?>
<!-- Generator: Adobe Illustrator 19.0.0, SVG Export Plug-In . SVG Version: 6.00 Build 0)  -->
<svg version="1.1" id="Layer_1" xmlns="http://www.w3.org/2000/svg" xmlns:xlink="http://www.w3.org/1999/xlink" x="0px" y="0px"
	 viewBox="0 0 502.4 502.4" style="enable-background:new 0 0 502.4 502.4;" xml:space="preserve">
<g>
	<g>
		<path d="M481.067,0.533H21.333C9.6,0.533,0,10.133,0,21.867v458.667c0,11.733,9.6,21.333,21.333,21.333H480
			c11.733,0,21.333-9.6,22.4-20.267V21.867C502.4,10.133,492.8,0.533,481.067,0.533z M206.933,460.267H57.6l121.6-155.733
			l71.467,107.733c0,0,0,1.067,1.067,1.067L206.933,460.267C208,459.2,208,460.267,206.933,460.267z M459.733,460.267h-195.2
			l195.2-206.933V460.267z M459.733,42.133v149.333l-179.2,189.867l-83.2-125.867c-4.267-6.4-10.667-9.6-17.067-9.6
			c-6.4,0-12.8,3.2-17.067,8.533L41.6,412.266v-371.2h418.133V42.133z"/>
	</g>
</g>
<g>
	<g>
		<path d="M289.067,91.2c-41.6,0-76.8,33.067-76.8,75.733c0,42.667,35.2,76.8,76.8,76.8c42.667,0,76.8-33.067,76.8-75.733
			C365.867,125.333,330.667,91.2,289.067,91.2z M289.067,201.067c-18.133,0-34.133-14.933-34.133-34.133
			c0-18.133,14.933-34.133,34.133-34.133c19.2,0,34.133,16,34.133,34.133C323.2,185.067,308.267,201.067,289.067,201.067z"/>
	</g>
</g>
<g>
</g>
<g>
</g>
<g>
</g>
<g>
</g>
<g>
</g>
<g>
</g>
<g>
</g>
<g>
</g>
<g>
</g>
<g>
</g>
<g>
</g>
<g>
</g>
<g>
</g>
<g>
</g>
<g>
</g>
</svg>
